<svg width="24" height="25" viewBox="0 0 24 25" fill="none" xmlns="http://www.w3.org/2000/svg">
    <path
        d="M2.82938 0.991228C1.62085 1.16015 0.57346 2.01882 0.175355 3.16841C0.0473934 3.54379 0.0379147 3.61417 0.0189573 4.53385L0 5.50983H12H24L23.981 4.53385C23.9621 3.68925 23.9431 3.52033 23.8531 3.2341C23.7014 2.76958 23.4597 2.36135 23.1232 2.00944C22.6919 1.5496 22.2085 1.25399 21.5972 1.071C21.327 0.986535 20.8673 0.981843 12.1422 0.977151C7.09953 0.972459 2.90995 0.981843 2.82938 0.991228Z"
        fill="currentColor" />
    <path
        d="M0.0284264 6.94087C0.0142084 6.96902 0.0142084 10.4506 0.0189478 14.683L0.0331658 22.3782L0.142171 22.7067C0.549753 23.9079 1.54501 24.7478 2.78672 24.9355C3.00947 24.9683 6.00473 24.9824 12.2133 24.973C20.8578 24.959 21.327 24.9543 21.5971 24.8698C22.2085 24.6868 22.6919 24.3912 23.1232 23.9314C23.4692 23.5701 23.7062 23.1665 23.8578 22.6832L23.9668 22.3313V14.6173V6.90333L12.0047 6.89864C3.93838 6.89395 0.0379051 6.90803 0.0284264 6.94087ZM6.43601 9.74212C6.5071 9.77497 7.42653 10.7509 8.47866 11.9099C9.9052 13.4865 10.4028 14.0636 10.4455 14.1997C10.5545 14.561 10.5308 14.5939 8.52132 16.8086C7.49762 17.9347 6.61136 18.9013 6.55449 18.9482C6.39336 19.0937 5.98103 19.1078 5.76776 18.9764C5.47392 18.7934 5.3507 18.3758 5.51184 18.0802C5.54975 18.0098 6.30805 17.1511 7.19904 16.1704L8.8199 14.3827L7.31753 12.7264C5.38862 10.5961 5.52132 10.7509 5.46445 10.5445C5.3744 10.2348 5.56397 9.85004 5.86255 9.72804C6.00473 9.67174 6.29383 9.68112 6.43601 9.74212ZM18.2085 16.9212C18.4644 17.0948 18.5592 17.259 18.5592 17.5218C18.5592 17.7752 18.4739 17.93 18.237 18.1036C18.109 18.2022 18.0711 18.2022 14.5118 18.2022C10.9336 18.2022 10.9147 18.2022 10.782 18.1036C10.5829 17.9535 10.4692 17.7283 10.4739 17.4843C10.4739 17.245 10.5735 17.0854 10.8152 16.9212L10.9716 16.818H14.5118H18.0521L18.2085 16.9212Z"
        fill="currentColor" />
</svg>