<svg width="32" height="32" viewBox="0 0 32 32" fill="none" xmlns="http://www.w3.org/2000/svg">
    <g clip-path="url(#clip0_12_52)">
        <path
            d="M14.1004 31.9795C11.1051 31.7636 8.14454 31.0097 6.32887 30.0003C5.29467 29.4254 4.50675 28.7188 4.19757 28.0891L4.01361 27.7144V15.9622V4.20991L4.15917 3.91435C4.80968 2.59366 6.88572 1.40305 9.78376 0.688676C10.7675 0.446162 12.1877 0.204655 13.3463 0.0828724C14.5294 -0.0415162 17.6652 -0.0225913 18.8453 0.116243C21.9819 0.484746 24.6509 1.30973 26.2957 2.41917C26.93 2.84701 27.5809 3.5316 27.8014 4.00282L27.9905 4.40684L27.9743 16.1236L27.9581 27.8403L27.8064 28.1486C27.7229 28.3182 27.4708 28.6518 27.2461 28.8899C25.8784 30.3398 22.9448 31.4123 19.0968 31.8692C18.3125 31.9624 14.9051 32.0375 14.1004 31.9795ZM19.6204 21.9094C19.6089 21.8794 19.1612 21.4805 18.6254 21.0229C18.0896 20.5654 17.6282 20.1695 17.6 20.1432C17.5718 20.1169 17.6708 20.0239 17.8199 19.9364C17.9691 19.849 18.255 19.6057 18.4551 19.3958C19.0405 18.7819 19.3167 18.0237 19.3167 17.0306C19.3167 16.0528 19.0188 15.2639 18.4222 14.6618C17.8209 14.0548 17.1305 13.7939 16.1251 13.7939C14.5754 13.7939 13.3852 14.6982 13.0053 16.1643C12.8746 16.6686 12.8753 17.6875 13.0066 18.1347C13.3492 19.301 14.2823 20.1481 15.4435 20.347C15.8365 20.4143 15.8897 20.4433 16.1576 20.7362C16.3168 20.9103 16.6435 21.2577 16.8836 21.5083L17.3202 21.964H18.4808C19.1191 21.964 19.632 21.9394 19.6204 21.9094ZM15.6403 18.6598C15.3609 18.5141 15.2553 18.4011 15.0959 18.0772C14.9729 17.827 14.9518 17.6847 14.9505 17.0934C14.9491 16.4926 14.9682 16.3628 15.0967 16.1019C15.3069 15.6749 15.5966 15.4728 16.0447 15.4404C16.6685 15.3952 17.0286 15.7013 17.2173 16.4371C17.4487 17.3391 17.1943 18.2981 16.6391 18.6164C16.3479 18.7834 15.9135 18.8023 15.6403 18.6598ZM10.496 20.3342C11.7129 20.1034 12.4036 19.3958 12.4036 18.3799C12.4036 17.4787 11.9576 16.9536 10.7251 16.4034C10.0196 16.0884 9.76403 15.8907 9.76403 15.6597C9.76403 15.4683 10.0066 15.2585 10.2889 15.2058C10.5646 15.1543 11.2957 15.2813 11.7275 15.4557L12.0894 15.6019V14.8008V13.9997L11.6966 13.9125C11.4538 13.8587 10.9437 13.8264 10.3611 13.828C9.5358 13.828 9.37421 13.8481 9.06364 13.9715C8.15646 14.3316 7.72598 14.9451 7.73286 15.8679C7.73931 16.7318 8.19506 17.2707 9.32932 17.7555C9.99857 18.0415 10.2668 18.2594 10.2668 18.5167C10.2668 19.0637 9.35545 19.131 8.39054 18.6553C8.12628 18.5251 7.88887 18.4078 7.86294 18.3949C7.83702 18.3819 7.81582 18.7561 7.81582 19.2265C7.81582 20.0779 7.81672 20.082 7.97087 20.1407C8.55134 20.3614 9.8343 20.4597 10.496 20.3342ZM24.4072 19.5444V18.8217H23.3074H22.2076V16.3392V13.8568H21.2335H20.2594V17.062V20.2671H22.3333H24.4072V19.5444ZM17.6198 6.87925C19.5556 6.74498 21.0066 6.49149 22.2835 6.06457C23.5556 5.63924 24.307 5.1246 24.4751 4.56359C24.5399 4.34741 24.5352 4.26541 24.4447 4.02838C24.0389 2.96575 21.7718 2.14932 18.3076 1.81831C16.8258 1.67668 14.1308 1.7226 12.7179 1.91345C10.562 2.20474 8.81238 2.74581 8.03443 3.36181C6.46071 4.60798 8.12492 5.9786 11.9951 6.62372C13.6732 6.90345 15.8473 7.00222 17.6198 6.87925Z"
            fill="#00BCF2" />
    </g>
    <defs>
        <clipPath id="clip0_12_52">
            <rect width="32" height="32" fill="white" />
        </clipPath>
    </defs>
</svg>