<svg width="24" height="24" viewBox="0 0 24 24" fill="none" xmlns="http://www.w3.org/2000/svg">
<g clip-path="url(#clip0_14_96)">
<path d="M18.7141 23.9672H5.28589C3.89268 23.9672 2.55653 23.4138 1.57138 22.4286C0.586228 21.4435 0.0327759 20.1073 0.0327759 18.7141V5.28589C0.0327759 3.89268 0.586228 2.55653 1.57138 1.57138C2.55653 0.586228 3.89268 0.0327759 5.28589 0.0327759H18.7147C20.108 0.0327759 21.4441 0.586228 22.4293 1.57138C23.4144 2.55653 23.9679 3.89268 23.9679 5.28589V18.7147C23.9678 19.4046 23.8318 20.0877 23.5677 20.725C23.3037 21.3623 22.9167 21.9413 22.4288 22.4291C21.9409 22.9168 21.3618 23.3037 20.7244 23.5676C20.087 23.8315 19.4039 23.9673 18.7141 23.9672Z" fill="url(#paint0_linear_14_96)"/>
<path d="M9.29641 20.8898L9.20854 20.8636C6.73772 20.1665 5.5751 17.4197 6.24788 15.1915C6.60133 14.021 7.36133 13.1528 8.35346 12.4767C9.01969 12.0216 9.71149 11.6039 10.3777 11.1502C11.3312 10.499 12.0525 9.65639 12.4105 8.54229C12.8492 7.17967 12.7043 5.90229 11.7299 4.81114C10.7056 3.6636 9.38559 3.21639 7.87018 3.4118C5.92657 3.66229 4.4728 4.69048 3.41837 6.31475C3.3751 6.38098 3.34362 6.45376 3.3069 6.52393C3.74428 6.2413 4.19739 6.05967 4.70231 5.99868C5.72526 5.87409 6.70887 6.55147 6.90165 7.53376C7.04985 8.28917 6.85378 8.98032 6.40395 9.57835C5.92395 10.2164 5.39608 10.8203 4.87346 11.4262C3.66887 12.8249 3.04919 14.4118 3.30821 16.2747C3.52592 17.8393 4.32592 19.0623 5.62493 19.9384C6.72592 20.68 7.9869 20.8957 9.29641 20.8898ZM12.583 10.8223C13.2912 10.8157 13.983 10.9515 14.6649 11.1475C15.6327 11.4306 16.5566 11.8461 17.4105 12.3823C18.2243 12.8879 19.0977 13.0315 20.0295 12.8761C20.2125 12.8459 20.3928 12.7862 20.5639 12.7167C20.6243 12.6918 20.6918 12.6 20.6958 12.5351C20.7095 12.3108 20.7115 12.0846 20.6918 11.861C20.631 11.1116 20.3759 10.3911 19.9515 9.77048C19.4282 9.00589 18.6951 8.52196 17.8276 8.23147C17.6807 8.18229 17.6249 8.10753 17.5948 7.96917C17.5528 7.77442 17.4997 7.57967 17.4315 7.39344C17.2997 7.03606 17.122 6.70491 16.8249 6.42753C16.7699 6.49507 16.7226 6.54688 16.6826 6.60393C16.2695 7.19671 16.1076 7.86622 16.1069 8.57639C16.1069 8.77967 16.0485 8.92852 15.8853 9.03606C15.4335 9.33311 14.9974 9.66098 14.5213 9.91278C13.8918 10.2472 13.2302 10.5226 12.583 10.8223ZM15.0479 19.4203C15.2601 18.8238 15.3673 18.1951 15.3646 17.562C15.3594 16.7403 15.2112 15.9456 14.798 15.2406C13.863 13.6439 12.4571 12.8059 10.5895 12.819C9.66559 12.8256 8.84395 13.1416 8.17182 13.7954C7.83436 14.1242 7.571 14.5212 7.39936 14.96C9.15608 13.1029 12.0099 13.661 13.0964 15.3344C13.7561 16.3508 13.9233 17.438 13.5312 18.5856C13.1364 19.7423 12.2853 20.4577 11.1646 20.8944C13.2551 20.8885 15.3364 20.8603 17.4662 20.6669C16.9482 19.642 16.0262 19.4964 15.0479 19.4203Z" fill="white"/>
<path d="M20.7797 15.0662C20.7587 14.6859 20.5705 14.4315 20.2859 14.2413C19.9364 14.0085 19.5344 13.9495 19.1266 13.9121C18.3862 13.8453 17.6748 13.6702 17.021 13.3082C16.4623 12.9987 15.9266 12.6446 15.3534 12.3653C14.4518 11.9259 13.4839 11.7075 12.4852 11.6171C11.8007 11.5541 11.1331 11.6105 10.4793 11.823C10.4026 11.8479 10.3311 11.8885 10.257 11.922C10.3429 11.9541 10.4144 11.9554 10.4846 11.9541C11.2544 11.9364 12.0052 12.0433 12.7259 12.3174C14.2223 12.8853 15.3082 13.922 16.08 15.3036C16.1534 15.4354 16.242 15.5318 16.381 15.5456C16.7311 15.579 17.0852 15.6262 17.4348 15.6059C17.8846 15.5803 18.2885 15.3744 18.6938 15.1862C19.1698 14.9653 19.6702 14.8538 20.1987 14.9403C20.381 14.9679 20.5613 15.0171 20.7797 15.0662ZM9.29639 20.8898C7.98623 20.8957 6.72524 20.68 5.62426 19.9364C4.32524 19.0603 3.52524 17.8374 3.30754 16.2728C3.04852 14.4098 3.66819 12.823 4.87279 11.4243C5.39475 10.819 5.92262 10.2151 6.40328 9.5764C6.85311 8.97902 7.04918 8.28722 6.90098 7.53181C6.70819 6.54952 5.72393 5.87214 4.70164 5.99673C4.19672 6.05837 3.7436 6.24001 3.30623 6.52197C3.34295 6.45247 3.37574 6.37902 3.4177 6.31279C4.47213 4.68853 5.92524 3.66033 7.86885 3.40984C9.38492 3.21443 10.7043 3.66165 11.7285 4.80919C12.7029 5.89968 12.8479 7.17771 12.4092 8.54034C12.0511 9.65509 11.3298 10.4984 10.3764 11.1482C9.71016 11.6033 9.01836 12.021 8.35213 12.4748C7.36065 13.1515 6.6 14.0197 6.24656 15.1895C5.57311 17.4177 6.73574 20.1646 9.20721 20.8616C9.23803 20.8728 9.26754 20.8813 9.29639 20.8898ZM12.5829 10.8223C13.2289 10.5226 13.8905 10.2479 14.5207 9.91345C14.9967 9.66034 15.4328 9.33312 15.8846 9.03673C16.0479 8.92919 16.1062 8.78034 16.1062 8.57706C16.1069 7.86689 16.2682 7.19738 16.682 6.6046C16.722 6.5482 16.7692 6.4964 16.8243 6.4282C17.1213 6.70493 17.299 7.03673 17.4308 7.39411C17.4997 7.58099 17.5521 7.77575 17.5941 7.96984C17.6243 8.10886 17.68 8.18296 17.8269 8.23214C18.6944 8.52263 19.4275 9.00657 19.9508 9.77116C20.3753 10.3917 20.6305 11.1123 20.6911 11.8616C20.7108 12.0853 20.7095 12.3115 20.6951 12.5357C20.6887 12.5742 20.6734 12.6105 20.6505 12.6421C20.6277 12.6736 20.5978 12.6994 20.5633 12.7174C20.3915 12.7898 20.2123 12.8432 20.0289 12.8767C19.097 13.0315 18.2236 12.8885 17.4098 12.383C16.5561 11.8464 15.6322 11.4308 14.6643 11.1482C13.9843 10.9508 13.2918 10.8157 12.5829 10.8223ZM15.0479 19.4203C16.0269 19.4951 16.9482 19.6413 17.4682 20.6675C15.3377 20.8603 13.2564 20.8892 11.1666 20.8951C12.2866 20.4584 13.1377 19.743 13.5331 18.5862C13.9246 17.4387 13.758 16.3515 13.0984 15.3351C12.0118 13.663 9.15869 13.1036 7.40131 14.9607C7.57279 14.5218 7.83617 14.1247 8.17377 13.7961C8.84524 13.143 9.66754 12.8269 10.5908 12.8197C12.4584 12.8059 13.8643 13.6446 14.7993 15.2413C15.2125 15.9469 15.36 16.741 15.3659 17.5626C15.3685 18.1889 15.2656 18.7915 15.0479 19.4203Z" fill="white"/>
</g>
<defs>
<linearGradient id="paint0_linear_14_96" x1="12" y1="23.9679" x2="12" y2="0.0327759" gradientUnits="userSpaceOnUse">
<stop stop-color="#FF780B"/>
<stop offset="1" stop-color="#FFA322"/>
</linearGradient>
<clipPath id="clip0_14_96">
<rect width="24" height="24" fill="white"/>
</clipPath>
</defs>
</svg>
