<svg width="24" height="24" viewBox="0 0 24 24" fill="none" xmlns="http://www.w3.org/2000/svg">
<g clip-path="url(#clip0_14_101)">
<path d="M12 1.27271C14.8933 1.27271 17.668 2.42205 19.7139 4.4679C21.7597 6.51376 22.9091 9.28853 22.9091 12.1818C22.9091 15.0751 21.7597 17.8498 19.7139 19.8957C17.668 21.9415 14.8933 23.0909 12 23.0909C9.10673 23.0909 6.33196 21.9415 4.28611 19.8957C2.24026 17.8498 1.09091 15.0751 1.09091 12.1818C1.09091 9.28853 2.24026 6.51376 4.28611 4.4679C6.33196 2.42205 9.10673 1.27271 12 1.27271Z" fill="url(#paint0_linear_14_101)"/>
<path d="M12 1.27271C9.10673 1.27271 6.33196 2.42205 4.28611 4.4679C2.24026 6.51376 1.09091 9.28853 1.09091 12.1818C1.09091 15.0751 2.24026 17.8498 4.28611 19.8957C6.33196 21.9415 9.10673 23.0909 12 23.0909V1.27271Z" fill="url(#paint1_linear_14_101)"/>
<path d="M22.9091 11.8182C22.9091 13.2508 22.6269 14.6694 22.0787 15.9929C21.5305 17.3165 20.7269 18.5191 19.7139 19.5321C18.7009 20.5451 17.4983 21.3487 16.1747 21.8969C14.8512 22.4451 13.4326 22.7273 12 22.7273C10.5674 22.7273 9.14883 22.4451 7.82527 21.8969C6.50172 21.3487 5.29911 20.5451 4.28611 19.5321C3.27311 18.5191 2.46955 17.3165 1.92132 15.9929C1.37308 14.6694 1.09091 13.2508 1.09091 11.8182C1.09091 8.92494 2.24026 6.15017 4.28611 4.10432C6.33196 2.05847 9.10673 0.909119 12 0.909119C14.8933 0.909119 17.668 2.05847 19.7139 4.10432C21.7597 6.15017 22.9091 8.92494 22.9091 11.8182Z" fill="#40A1C8"/>
<path d="M5.45455 12C5.44474 14.3939 5.92747 16.7642 6.87273 18.9636C6.21197 19.2932 5.60998 19.7294 5.09091 20.2545C3.86486 19.2516 2.87195 17.9936 2.18118 16.5681C1.49042 15.1426 1.11837 13.5838 1.09091 12H5.45455Z" fill="#49BBB0"/>
<path d="M12 17.8182V22.7273C11.1818 22.7273 10.3637 22.6364 9.56365 22.4546C8.37249 21.5431 7.44403 20.3323 6.87274 18.9455C8.47152 18.1779 10.2267 17.792 12 17.8182Z" fill="#378BDE"/>
<path d="M18.5455 12C18.5553 14.3939 18.0725 16.7642 17.1273 18.9636C17.788 19.2932 18.39 19.7294 18.9091 20.2545C20.1351 19.2516 21.1281 17.9936 21.8188 16.5681C22.5096 15.1426 22.8816 13.5838 22.9091 12H18.5455Z" fill="#266EC6"/>
<path d="M12 12V22.7273C12.8182 22.7273 13.6364 22.6364 14.4364 22.4545C16.8727 20.7273 18.5091 16.6182 18.5455 12H12Z" fill="#378BDE"/>
<path d="M12 17.8182V22.7273C12.8182 22.7273 13.6364 22.6364 14.4364 22.4546C15.4909 21.7273 16.4182 20.5091 17.1273 18.9455C15.5285 18.1779 13.7733 17.792 12 17.8182Z" fill="#266EC6"/>
<path d="M17.1273 18.9636C16.4 20.5091 15.4909 21.7091 14.4364 22.4545C16.0755 22.0816 17.6062 21.3349 18.9091 20.2727C18.3961 19.7357 17.7931 19.2927 17.1273 18.9636Z" fill="#1E62B5"/>
<path d="M12 0.909119C10.552 0.908918 9.11838 1.197 7.78284 1.75657C6.44729 2.31614 5.23652 3.13599 4.2211 4.16833C3.20568 5.20067 2.40595 6.42483 1.86853 7.76944C1.33112 9.11405 1.06677 10.5522 1.0909 12H12V0.909119Z" fill="#53D795"/>
<path d="M9.56364 1.18182C7.92454 1.55478 6.39381 2.30148 5.09091 3.36364C5.60391 3.90063 6.20695 4.34368 6.87273 4.67273C7.6 3.12728 8.50909 1.92728 9.56364 1.18182Z" fill="#72E99A"/>
<path d="M12 0.909119C11.1818 0.909119 10.3637 1.00003 9.56365 1.18185C7.09092 2.9273 5.45456 7.1273 5.45456 11.8182V12H12V0.909119Z" fill="#49BBB0"/>
<path d="M12 0.909119C11.1818 0.909119 10.3637 1.00003 9.56365 1.18185C8.37311 2.09396 7.44479 3.30453 6.87274 4.69094C8.47152 5.45856 10.2267 5.84445 12 5.81821V0.909119Z" fill="#53D795"/>
<path d="M12 0.909119C13.448 0.908918 14.8816 1.197 16.2172 1.75657C17.5527 2.31614 18.7635 3.13599 19.7789 4.16833C20.7943 5.20067 21.594 6.42483 22.1315 7.76944C22.6689 9.11405 22.9332 10.5522 22.9091 12H12V0.909119Z" fill="#378BDE"/>
<path d="M14.4364 1.18182C16.0755 1.55478 17.6062 2.30148 18.9091 3.36364C18.3961 3.90063 17.7931 4.34368 17.1273 4.67273C16.4 3.12728 15.4909 1.92728 14.4364 1.18182Z" fill="#40A1C8"/>
<path d="M12 0.909119C12.8182 0.909119 13.6364 1.00003 14.4364 1.18185C16.9091 2.9273 18.5455 7.1273 18.5455 11.8182V12H12V0.909119Z" fill="#40A1C8"/>
<path d="M12 0.909119C12.8182 0.909119 13.6364 1.00003 14.4364 1.18185C15.4909 1.90912 16.4182 3.1273 17.1273 4.67276C15.6727 5.40003 13.8545 5.81821 12 5.81821V0.909119Z" fill="#49BBB0"/>
</g>
<defs>
<linearGradient id="paint0_linear_14_101" x1="18.1818" y1="20.7273" x2="20" y2="20.7273" gradientUnits="userSpaceOnUse">
<stop stop-color="#16529C"/>
<stop offset="1" stop-color="#236AC0"/>
</linearGradient>
<linearGradient id="paint1_linear_14_101" x1="10.9091" y1="22.1818" x2="2.90909" y2="22.1818" gradientUnits="userSpaceOnUse">
<stop stop-color="#2166BB"/>
<stop offset="1" stop-color="#89EDA9"/>
</linearGradient>
<clipPath id="clip0_14_101">
<rect width="24" height="24" fill="white"/>
</clipPath>
</defs>
</svg>
